# xmcd
#
# Track frame offsets:
#	150
#	22017
#	43125
#	63013
#	82166
#	100780
#	118790
#	130891
#	149056
#	167061
#	185567
#	199093
#	213375
#	232045
#	250821
#	269106
#	286160
#	300617
#
# Disc length: 4170 seconds
#
# Revision: 1
# Processed by: cddbd v1.5.2PL0 Copyright (c) Steve Scherf et al.
# Submitted via: EZCDAudioConverter 8.0.7.1
#
DISCID=17104812
DTITLE=Tom Vanderbilt - Traffic - WhyWeDriveThWayWeDo Rd By David Slavin
DYEAR=2008
DGENRE=Speech
TTITLE0=Disc 2, Track 01
TTITLE1=Disc 2, Track 02
TTITLE2=Disc 2, Track 03
TTITLE3=Disc 2, Track 04
TTITLE4=Disc 2, Track 05
TTITLE5=Disc 2, Track 06
TTITLE6=Disc 2, Track 07
TTITLE7=Disc 2, Track 08
TTITLE8=Disc 2, Track 09
TTITLE9=Disc 2, Track 10
TTITLE10=Disc 2, Track 11
TTITLE11=Disc 2, Track 12
TTITLE12=Disc 2, Track 13
TTITLE13=Disc 2, Track 14
TTITLE14=Disc 2, Track 15
TTITLE15=Disc 2, Track 16
TTITLE16=Disc 2, Track 17
TTITLE17=Disc 2, Track 18
EXTD=
EXTT0=
EXTT1=
EXTT2=
EXTT3=
EXTT4=
EXTT5=
EXTT6=
EXTT7=
EXTT8=
EXTT9=
EXTT10=
EXTT11=
EXTT12=
EXTT13=
EXTT14=
EXTT15=
EXTT16=
EXTT17=
PLAYORDER=
